<svg width="333" height="56" viewBox="0 0 333 56" fill="none" xmlns="http://www.w3.org/2000/svg">
<rect x="36.7695" y="5.65686" width="9" height="52" transform="rotate(45 36.7695 5.65686)" fill="#57BB08"/>
<rect x="48.7904" y="6.36397" width="9" height="52" transform="rotate(45 48.7904 6.36397)" fill="#70DA1C"/>
<path d="M13 48V13H23V18H28V23H33V18H38V13H48V48H38V28H33V38H28V28H23V48H13ZM58 53V48H78V43H58V38H53V23H63V38H78V23H88V48H83V53H58ZM98 48V43H93V13H103V33H108V13H113V33H118V13H128V43H123V48H118V43H113V38H108V43H103V48H98ZM138 48V43H133V38H138V33H158V28H138V23H163V28H168V48H138ZM143 43H158V38H143V43ZM178 48V43H188V18H183V13H198V43H208V48H178ZM218 48V43H228V18H223V13H238V43H248V48H218ZM258 48V43H253V28H258V23H283V28H288V38H263V43H283V48H258ZM263 33H278V28H263V33ZM308 48V28H298V23H308V13H318V23H328V28H318V48H308Z" fill="#2C2C2C"/>
</svg>
